<svg width="512" height="512" viewBox="0 0 256 256" xmlns="http://www.w3.org/2000/svg">
  <defs>
    <linearGradient id="bg" x1="0" y1="0" x2="1" y2="1">
      <stop offset="0%" stop-color="#195a6a"/>
      <stop offset="100%" stop-color="#409aa0"/>
    </linearGradient>
  </defs>
  <rect x="10" y="10" width="236" height="236" rx="56" fill="url(#bg)" stroke="#d2e7ec" stroke-width="3"/>
  <path d="M128 52 C165 64 189 70 196 76 V124 C196 168 160 194 128 210 C96 194 60 168 60 124 V76 C67 70 91 64 128 52Z" fill="#f5fafb"/>
  <path d="M96 154 H164 M164 112 V154 M128 116 A9 9 0 1 1 127.9 116" fill="none" stroke="#216a76" stroke-width="8" stroke-linecap="round"/>
  <path d="M91 129 A46 46 0 1 1 165 112" fill="none" stroke="#216a76" stroke-width="8" stroke-linecap="round"/>
  <text x="128" y="232" text-anchor="middle" font-family="Segoe UI, Microsoft YaHei, sans-serif" font-size="24" font-weight="700" fill="#d6ecf0">VC</text>
</svg>
